HIERARCHY
ROOT Hips
{
  OFFSET 0 0 0
  CHANNELS 6 Xposition Yposition Zposition Zrotation Yrotation Xrotation
  JOINT LeftThigh
  {
    OFFSET 8.409438 0 -5.917753
    CHANNELS 3 Zrotation Yrotation Xrotation
    JOINT LeftLeg
    {
      OFFSET 0 0 -42.358652
      CHANNELS 3 Zrotation Yrotation Xrotation
      JOINT LeftFoot
      {
        OFFSET 0 0 -39.357303
        CHANNELS 3 Zrotation Yrotation Xrotation
      }
    }
  }
  JOINT RightThigh
  {
    OFFSET -8.409438 0 -5.917753
    CHANNELS 3 Zrotation Yrotation Xrotation
    JOINT RightLeg
    {
      OFFSET 0 0 -42.358652
      CHANNELS 3 Zrotation Yrotation Xrotation
      JOINT RightFoot
      {
        OFFSET 0 0 -39.357303
        CHANNELS 3 Zrotation Yrotation Xrotation
      }
    }
  }
  JOINT SpineLow
  {
    OFFSET 0 0 4.719101
    CHANNELS 3 Zrotation Yrotation Xrotation
    JOINT SpineMid
    {
      OFFSET 0 0 12.899191
      CHANNELS 3 Zrotation Yrotation Xrotation
      JOINT Chest
      {
        OFFSET 0 0 12.899191
        CHANNELS 3 Zrotation Yrotation Xrotation
        JOINT LeftShoulder
        {
          OFFSET 7.550562 1.41573 9.438202
          CHANNELS 3 Zrotation Yrotation Xrotation
          JOINT LeftArm
          {
            OFFSET 9.155056 0 4.247191
            CHANNELS 3 Zrotation Yrotation Xrotation
            JOINT LeftForearm
            {
              OFFSET 0 0 25.771955
              CHANNELS 3 Zrotation Yrotation Xrotation
              JOINT LeftHand
              {
                OFFSET 0 0 25.197169
                CHANNELS 3 Zrotation Yrotation Xrotation
              }
            }
          }
        }
        JOINT RightShoulder
        {
          OFFSET -7.550562 1.41573 9.438202
          CHANNELS 3 Zrotation Yrotation Xrotation
          JOINT RightArm
          {
            OFFSET -9.155056 0 4.247191
            CHANNELS 3 Zrotation Yrotation Xrotation
            JOINT RightForearm
            {
              OFFSET 0 0 -25.771955
              CHANNELS 3 Zrotation Yrotation Xrotation
              JOINT RightHand
              {
                OFFSET 0 0 -25.197169
                CHANNELS 3 Zrotation Yrotation Xrotation
              }
            }
          }
        }
        JOINT Neck
        {
          OFFSET 0 0 15.101124
          CHANNELS 3 Zrotation Yrotation Xrotation
          JOINT Head
          {
            OFFSET 0 0 11.325843
            CHANNELS 3 Zrotation Yrotation Xrotation
            End Site
            {
              OFFSET 0 0 14.157303
            }
          }
        }
      }
    }
  }
}
MOTION
Frames: 10
Frame Time: 0.0
0.0  93.25843  0.0  -0.358964  -30.999109  -90.486175  20.071232  -10.764646  5.003369  6.348781  -2.712318  6.337573  10.139167  1.654228  2.41795  -6.448842  2.54337  -11.477161  -2.165312  3.16778  1.572013  9.110577  1.410877  1.280514  3.136835  -1.542416  -0.010013  8.585565  -4.206577  -0.227649  8.585565  -4.206577  -0.227649  -29.482717  30.965989  -17.074971  125.683722  51.519581  -150.665644  -26.629354  4.067951  98.780562  63.873164  -8.709002  7.115684  -1.731294  -2.801165  25.362738  53.467552  40.766187  -8.266953  8.750073  -21.579851  -123.264655  65.296437  19.252263  -19.687533  -3.778918  9.421333  8.795416  -2.965179  7.013805  6.640607  
0.0  93.25843  0.0  -0.391203  -31.105253  -90.612786  19.496006  -10.933637  4.87148  6.518058  -2.610479  6.536202  10.344444  1.702365  2.582943  -6.551764  2.384056  -11.468887  -2.474579  3.384658  1.776045  9.849445  1.414932  1.401377  3.131248  -1.557222  0.024825  8.56826  -4.251512  -0.13406  8.568259  -4.251513  -0.13406  -29.244887  30.859971  -16.96949  125.901076  51.188145  -150.222024  -26.377853  4.28453  98.956544  64.008033  -8.731146  7.013602  -1.761179  -2.805267  25.332381  53.171498  40.667975  -8.439193  9.229871  -21.61262  -123.40186  65.472167  19.103201  -19.228983  -3.698707  9.471413  8.837321  -2.906476  7.052279  6.670857  
0.0  93.25843  0.0  -0.425848  -31.100304  -90.704113  19.356007  -11.110088  4.948965  6.567939  -2.455148  6.743862  10.353914  1.717913  2.564011  -6.566641  2.217769  -11.454043  -2.092346  3.740339  2.223648  9.890015  1.43848  1.348579  3.119058  -1.576141  0.046849  8.533717  -4.306018  -0.075566  8.533718  -4.306018  -0.075566  -29.21404  30.806744  -16.870069  126.119406  50.954776  -149.955884  -26.401696  4.223502  99.00482  63.763831  -8.95516  7.226307  -1.78013  -2.816996  25.370304  53.016843  40.613524  -8.509815  9.595314  -21.692934  -123.507608  65.547645  19.03309  -18.783256  -3.638  9.553438  8.917281  -2.863419  7.11424  6.729965  
0.0  93.25843  0.0  -0.58336  -30.771734  -90.622937  18.482706  -11.413702  4.670346  6.101118  -2.283245  6.684561  11.013115  1.767268  3.050538  -6.942068  1.866113  -11.548743  -2.756293  4.173332  2.425092  10.848857  1.436846  1.532272  3.047386  -1.61252  0.037194  8.338631  -4.404292  -0.101873  8.338632  -4.404292  -0.101873  -28.88479  30.878835  -16.666094  126.265405  50.672657  -149.796236  -26.20786  4.140734  99.174871  63.513346  -9.352644  7.454337  -1.788046  -2.760064  25.366068  53.005545  40.534206  -8.522827  9.808908  -21.811545  -123.578114  65.349534  18.980012  -18.52945  -3.522442  9.638772  9.040083  -2.780071  7.179269  6.820234  
0.0  93.25843  0.0  -0.616446  -30.621797  -90.662807  18.093134  -11.664774  4.564646  6.202257  -2.001776  7.180337  11.014725  1.770346  3.019772  -7.243326  1.547524  -11.619331  -2.204344  4.734579  3.046325  10.841049  1.510972  1.461875  3.023958  -1.630193  0.043256  8.274323  -4.453359  -0.085968  8.274323  -4.453359  -0.085968  -28.812898  30.869877  -16.56007  126.376689  50.334467  -149.662885  -26.207874  3.591788  99.1499  63.024812  -9.914151  7.916253  -1.749846  -2.7449  25.432465  52.934302  40.532928  -8.583621  9.877726  -21.914679  -123.592558  65.096772  19.053353  -18.355787  -3.478558  9.716527  9.151191  -2.750107  7.237661  6.902854  
0.0  93.25843  0.0  -0.889796  -29.915744  -90.456136  17.030548  -12.147052  4.103421  5.126576  -1.744845  7.016028  12.008797  1.845616  3.795464  -8.303019  0.918841  -11.830848  -2.421064  5.36662  3.46557  11.435373  1.535984  1.576089  2.899578  -1.674258  0.004418  7.937074  -4.569372  -0.189023  7.937074  -4.569372  -0.189023  -28.186163  31.063957  -16.228614  126.142884  49.946237  -149.657756  -26.071381  2.900074  99.127634  62.573101  -10.563403  8.382151  -1.952271  -2.68416  25.308853  53.380186  40.459605  -8.371342  9.797633  -21.971032  -123.531673  64.708854  19.167344  -18.193033  -3.275092  9.76585  9.347464  -2.601729  7.276706  7.046513  
0.0  93.25843  0.0  -0.918302  -29.50383  -90.479103  16.405961  -12.516458  3.746128  5.233369  -1.276134  7.956807  11.925903  1.836985  3.747011  -8.774645  0.534923  -11.893264  -1.936405  6.054432  4.197439  11.381685  1.664915  1.49769  2.862659  -1.675742  -0.007229  7.836832  -4.572227  -0.218475  7.836833  -4.572227  -0.218475  -28.039922  31.099936  -15.964667  126.286497  49.608663  -149.488442  -25.934842  1.983985  98.997301  62.044703  -11.174925  8.836534  -1.92732  -2.712809  25.447965  53.30367  40.556611  -8.515456  9.492023  -21.913002  -123.416379  64.393435  19.331594  -17.988233  -3.278941  9.766493  9.459597  -2.606445  7.276578  7.130474  
0.0  93.25843  0.0  -1.022885  -28.750577  -90.422639  15.289998  -13.021194  3.064481  5.393917  -0.703018  9.246282  11.004678  1.773112  3.103507  -9.719967  0.060614  -12.071834  -1.392381  6.739137  4.997334  11.238418  1.815705  1.405588  2.794042  -1.677411  -0.033703  7.65085  -4.574088  -0.286275  7.65085  -4.574088  -0.286275  -27.7425  31.285863  -15.593475  126.353779  49.357959  -149.300618  -25.660507  0.967409  98.779193  61.536442  -11.67829  9.098051  -2.077163  -2.831204  25.4199  53.142859  40.653468  -8.631389  9.175867  -21.799372  -123.316895  64.021286  19.362835  -17.781536  -3.1249  9.684926  9.643084  -2.492926  7.216881  7.265119  
0.0  93.25843  0.0  -1.005533  -27.978734  -90.49476  14.471929  -13.413072  2.405302  5.27724  -0.127308  10.633666  10.947425  1.763115  3.13184  -10.52026  -0.179295  -12.106318  -0.884996  7.285257  5.798651  11.137277  2.004405  1.325909  2.7626  -1.64819  -0.064235  7.566418  -4.491046  -0.364177  7.566418  -4.491046  -0.364177  -27.675159  31.498373  -15.125888  126.591735  49.191492  -149.067495  -25.204259  -0.150682  98.60071  61.217039  -12.017331  8.987125  -2.115828  -3.094154  25.612817  52.826376  40.751962  -8.766725  8.659015  -21.481635  -123.201411  63.875421  19.469332  -17.359724  -3.28189  9.531988  9.73492  -2.609591  7.099235  7.336076  
0.0  93.25843  0.0  -1.278769  -27.273336  -90.753139  14.505765  -14.323599  2.237256  4.446328  0.610475  11.652147  11.055516  1.783717  3.337334  -11.39669  -0.523483  -11.711347  0.332212  7.760831  6.677373  10.116926  2.27502  0.957442  2.749989  -1.669657  -0.059614  7.531921  -4.550256  -0.353158  7.531921  -4.550256  -0.353158  -26.068202  32.52168  -14.045653  124.826909  48.965049  -149.543588  -24.619941  -1.701046  98.469024  61.149088  -12.421074  8.660409  -1.99737  -3.315781  25.906758  52.331576  40.889694  -9.013142  7.890278  -21.064523  -123.067373  63.623042  19.541876  -16.991194  -3.324915  9.345502  9.890986  -2.641408  6.957861  7.453172  
